<svg id="gift-box" xmlns="http://www.w3.org/2000/svg" width="35.128" height="37.875" viewBox="0 0 35.128 37.875">
  <path id="Path_233" data-name="Path 233" d="M130.3,38.2a.628.628,0,0,0,.6-.806,11.056,11.056,0,0,0-2.278-4.161,3.492,3.492,0,0,0-3.315-1.014.627.627,0,0,0-.362.362,1.572,1.572,0,0,0-.077.289,2.4,2.4,0,0,0-.032.354v.01a3.787,3.787,0,0,0,1.122,2.661,11.062,11.062,0,0,0,4.159,2.277.658.658,0,0,0,.181.028Zm-3.45-3.192a2.592,2.592,0,0,1-.575-.875V34.13c-.028-.07-.051-.139-.072-.206-.011-.036-.018-.071-.028-.107s-.018-.063-.024-.094-.008-.044-.012-.066a2.389,2.389,0,0,1-.038-.284,2.593,2.593,0,0,1,1.638.753,8.524,8.524,0,0,1,1.487,2.378,8.523,8.523,0,0,1-2.381-1.493Zm0,0" transform="translate(-115.055 -29.617)" fill="#505050"/>
  <path id="Path_234" data-name="Path 234" d="M34.513,9.019H24.831a8.78,8.78,0,0,0,1.175-.962c2.244-2.251,2.317-5.663.884-7.1s-4.845-1.361-7.1.885a12.308,12.308,0,0,0-2.215,3.4,12.292,12.292,0,0,0-2.217-3.4C13.109-.4,9.7-.474,8.264.96s-1.36,4.846.884,7.1a8.819,8.819,0,0,0,1.175.962H.64a.627.627,0,0,0-.627.627v6.273a.627.627,0,0,0,.627.627H1.894V34.738a3.141,3.141,0,0,0,3.136,3.136H30.123a3.14,3.14,0,0,0,3.136-3.136V16.546h1.255a.627.627,0,0,0,.627-.627V9.646a.627.627,0,0,0-.627-.627ZM20.679,2.732C22.482.935,25.112.955,26,1.847s.913,3.52-.885,5.323a10.5,10.5,0,0,1-2.783,1.849H18.587V8.978c0-.143-.011-.288-.025-.434-.005-.048-.011-.1-.016-.145q-.022-.181-.054-.36c-.007-.042-.014-.084-.021-.126-.03-.156-.063-.31-.1-.459,0-.021-.011-.04-.016-.063-.033-.13-.068-.251-.1-.376l-.014-.053a11.96,11.96,0,0,1,2.441-4.231Zm-.594,12.56H15.067V10.273h5.018ZM10.035,7.17c-1.8-1.8-1.777-4.432-.885-5.324s3.52-.913,5.322.883a12.049,12.049,0,0,1,2.509,4.422c.071.22.125.432.177.637.014.059.026.116.039.174.034.153.061.3.082.439.007.047.016.1.021.143a4.054,4.054,0,0,1,.032.472H12.818A10.513,10.513,0,0,1,10.035,7.17Zm-8.768,3.1H13.813v5.018H1.267ZM3.149,34.738V16.546H15.067V36.619H5.031a1.882,1.882,0,0,1-1.882-1.882Zm13.173,1.882V16.546h2.509V36.619ZM32,34.738a1.882,1.882,0,0,1-1.882,1.882H20.086V16.546H32Zm1.882-19.446H21.34V10.273H33.886Zm0,0" transform="translate(-0.013 0.001)" fill="#505050"/>
  <path id="Path_235" data-name="Path 235" d="M246.135,38.259a.627.627,0,0,0,.178-.026,11.021,11.021,0,0,0,4.162-2.281,3.551,3.551,0,0,0,1.016-3.317.623.623,0,0,0-.361-.361,3.551,3.551,0,0,0-3.317,1.016,11.029,11.029,0,0,0-2.281,4.162.628.628,0,0,0,.6.806Zm2.566-4.08a2.6,2.6,0,0,1,1.64-.753,2.6,2.6,0,0,1-.753,1.64,8.48,8.48,0,0,1-2.384,1.5A8.474,8.474,0,0,1,248.7,34.178Zm0,0" transform="translate(-226.258 -29.67)" fill="#505050"/>
</svg>
