<svg id="cellphone" xmlns="http://www.w3.org/2000/svg" width="24.203" height="45.382" viewBox="0 0 24.203 45.382">
  <g id="Group_42" data-name="Group 42" transform="translate(0)">
    <g id="Group_41" data-name="Group 41">
      <path id="Path_245" data-name="Path 245" d="M132.422,0h-16.64A3.786,3.786,0,0,0,112,3.782V41.6a3.786,3.786,0,0,0,3.782,3.782h16.64A3.786,3.786,0,0,0,136.2,41.6V3.782A3.786,3.786,0,0,0,132.422,0ZM121.1,43.869h-5.314a2.269,2.269,0,0,1-2.269-2.269V39.331H121.1A3.706,3.706,0,0,0,121.1,43.869Zm3.006,0a2.269,2.269,0,1,1,2.269-2.269A2.269,2.269,0,0,1,124.1,43.869ZM134.691,41.6a2.269,2.269,0,0,1-2.269,2.269h-5.314a3.706,3.706,0,0,0,0-4.538h7.583Zm0-3.782H113.513V8.32h21.178Zm0-31.011H113.513V3.782a2.269,2.269,0,0,1,2.269-2.269h16.64a2.269,2.269,0,0,1,2.269,2.269Z" transform="translate(-112)" fill="#505050"/>
    </g>
  </g>
  <g id="Group_44" data-name="Group 44" transform="translate(6.807 3.782)">
    <g id="Group_43" data-name="Group 43">
      <rect id="Rectangle_436" data-name="Rectangle 436" width="7.564" height="1.513" fill="#505050"/>
    </g>
  </g>
  <g id="Group_46" data-name="Group 46" transform="translate(3.782 15.127)">
    <g id="Group_45" data-name="Group 45">
      <path id="Path_246" data-name="Path 246" d="M157.295,160h-3.025A2.269,2.269,0,0,0,152,162.269v3.025a2.269,2.269,0,0,0,2.269,2.269h3.025a2.269,2.269,0,0,0,2.269-2.269v-3.025A2.269,2.269,0,0,0,157.295,160Zm.756,5.295a.756.756,0,0,1-.756.756h-3.025a.756.756,0,0,1-.756-.756v-3.025a.756.756,0,0,1,.756-.756h3.025a.756.756,0,0,1,.756.756Z" transform="translate(-152 -160)" fill="#505050"/>
    </g>
  </g>
  <g id="Group_48" data-name="Group 48" transform="translate(12.858 15.127)">
    <g id="Group_47" data-name="Group 47">
      <path id="Path_247" data-name="Path 247" d="M253.295,160h-3.025A2.269,2.269,0,0,0,248,162.269v3.025a2.269,2.269,0,0,0,2.269,2.269h3.025a2.269,2.269,0,0,0,2.269-2.269v-3.025A2.269,2.269,0,0,0,253.295,160Zm.756,5.295a.756.756,0,0,1-.756.756h-3.025a.756.756,0,0,1-.756-.756v-3.025a.756.756,0,0,1,.756-.756h3.025a.756.756,0,0,1,.756.756Z" transform="translate(-248 -160)" fill="#505050"/>
    </g>
  </g>
  <g id="Group_50" data-name="Group 50" transform="translate(3.782 24.204)">
    <g id="Group_49" data-name="Group 49">
      <path id="Path_248" data-name="Path 248" d="M157.295,256h-3.025A2.269,2.269,0,0,0,152,258.269v3.025a2.269,2.269,0,0,0,2.269,2.269h3.025a2.269,2.269,0,0,0,2.269-2.269v-3.025A2.269,2.269,0,0,0,157.295,256Zm.756,5.295a.756.756,0,0,1-.756.756h-3.025a.756.756,0,0,1-.756-.756v-3.025a.756.756,0,0,1,.756-.756h3.025a.756.756,0,0,1,.756.756Z" transform="translate(-152 -256)" fill="#505050"/>
    </g>
  </g>
  <g id="Group_52" data-name="Group 52" transform="translate(12.858 24.204)">
    <g id="Group_51" data-name="Group 51">
      <path id="Path_249" data-name="Path 249" d="M253.295,256h-3.025A2.269,2.269,0,0,0,248,258.269v3.025a2.269,2.269,0,0,0,2.269,2.269h3.025a2.269,2.269,0,0,0,2.269-2.269v-3.025A2.269,2.269,0,0,0,253.295,256Zm.756,5.295a.756.756,0,0,1-.756.756h-3.025a.756.756,0,0,1-.756-.756v-3.025a.756.756,0,0,1,.756-.756h3.025a.756.756,0,0,1,.756.756Z" transform="translate(-248 -256)" fill="#505050"/>
    </g>
  </g>
  <g id="Group_54" data-name="Group 54" transform="translate(3.025 9.833)">
    <g id="Group_53" data-name="Group 53">
      <path id="Path_250" data-name="Path 250" d="M147.025,104h-2.269a.756.756,0,0,0-.756.756v2.269a.756.756,0,0,0,1.513,0v-1.513h1.513a.756.756,0,0,0,0-1.513Z" transform="translate(-144 -104)" fill="#505050"/>
    </g>
  </g>
  <g id="Group_56" data-name="Group 56" transform="translate(8.32 9.833)">
    <g id="Group_55" data-name="Group 55">
      <path id="Path_251" data-name="Path 251" d="M202.269,104h-1.513a.756.756,0,1,0,0,1.513h1.513a.756.756,0,1,0,0-1.513Z" transform="translate(-200 -104)" fill="#505050"/>
    </g>
  </g>
  <g id="Group_58" data-name="Group 58" transform="translate(15.884 3.782)">
    <g id="Group_57" data-name="Group 57">
      <rect id="Rectangle_437" data-name="Rectangle 437" width="1.513" height="1.513" fill="#505050"/>
    </g>
  </g>
</svg>
