<svg xmlns="http://www.w3.org/2000/svg" width="40.129" height="43.34" viewBox="0 0 40.129 43.34">
  <g id="idea" transform="translate(0)">
    <path id="Path_236" data-name="Path 236" d="M23.644,8a13.641,13.641,0,0,0-4.816,26.405v7.3a.8.8,0,0,0,.8.8h.8v1.605a.8.8,0,0,0,.8.8h4.816a.8.8,0,0,0,.8-.8V42.511h.8a.8.8,0,0,0,.8-.8v-7.3A13.641,13.641,0,0,0,23.644,8Zm2.408,32.906a.8.8,0,0,0-.8.8v1.605h-3.21V41.709a.8.8,0,0,0-.8-.8h-.8V36.893h6.421v4.013Zm1.355-7.832a.8.8,0,0,0-.552.762v1.451H20.434V33.837a.8.8,0,0,0-.552-.762,12.039,12.039,0,1,1,7.525,0Z" transform="translate(-3.579 -1.579)" fill="#505050"/>
    <path id="Path_237" data-name="Path 237" d="M26.8,4.816a.8.8,0,0,0,.8-.8V.8A.8.8,0,1,0,26,.8v3.21A.8.8,0,0,0,26.8,4.816Z" transform="translate(-6.738)" fill="#505050"/>
    <path id="Path_238" data-name="Path 238" d="M50.013,24H46.8a.8.8,0,1,0,0,1.605h3.21a.8.8,0,0,0,0-1.605Z" transform="translate(-10.686 -4.738)" fill="#505050"/>
    <path id="Path_239" data-name="Path 239" d="M6.013,24H2.8a.8.8,0,1,0,0,1.605h3.21a.8.8,0,1,0,0-1.605Z" transform="translate(-2 -4.738)" fill="#505050"/>
    <path id="Path_240" data-name="Path 240" d="M42.648,7.264l-2.27,2.27a.8.8,0,1,0,1.135,1.135l2.27-2.27a.8.8,0,1,0-1.135-1.135Z" transform="translate(-9.53 -1.388)" fill="#505050"/>
    <path id="Path_241" data-name="Path 241" d="M11.534,38.378l-2.27,2.27A.8.8,0,1,0,10.4,41.783l2.27-2.27a.8.8,0,0,0-1.135-1.135Z" transform="translate(-3.388 -7.53)" fill="#505050"/>
    <path id="Path_242" data-name="Path 242" d="M41.513,38.378a.8.8,0,0,0-1.135,1.135l2.27,2.27a.8.8,0,0,0,1.135-1.135Z" transform="translate(-9.53 -7.53)" fill="#505050"/>
    <path id="Path_243" data-name="Path 243" d="M11.534,10.669a.8.8,0,0,0,1.135-1.135L10.4,7.264A.8.8,0,0,0,9.264,8.4Z" transform="translate(-3.388 -1.388)" fill="#505050"/>
    <path id="Path_244" data-name="Path 244" d="M24.631,13A9.642,9.642,0,0,0,15,22.631a.8.8,0,0,0,1.605,0,8.035,8.035,0,0,1,8.026-8.026.8.8,0,1,0,0-1.605Z" transform="translate(-4.566 -2.566)" fill="#505050"/>
  </g>
</svg>
