<svg xmlns="http://www.w3.org/2000/svg" width="54.722" height="32.919" viewBox="0 0 54.722 32.919">
  <path id="mortarboard" d="M54.243,11.945,27.691.073a.807.807,0,0,0-.661,0L16.266,4.886a.81.81,0,0,0,.661,1.478L27.361,1.7l9.552,4.271v5.963a33.192,33.192,0,0,0-9.529-2h-.045a33.444,33.444,0,0,0-10.645,2.431,27.592,27.592,0,0,0-6,3.34.809.809,0,0,0-.282.386L2.792,12.684,13.467,7.911a.809.809,0,0,0-.661-1.478L.479,11.945a.81.81,0,0,0,0,1.478l9.882,4.42v3.876a.81.81,0,0,0,1.619,0V16.766a26.19,26.19,0,0,1,5.325-2.9,32.555,32.555,0,0,1,10.056-2.311,32.388,32.388,0,0,1,9.551,2.11v8.044a2.86,2.86,0,0,0-.281,5.386l-.566,1.49a30.249,30.249,0,0,0-8.7,2.607c-4.8-2.523-12.847-3.236-15.38-3.4V25.515a.81.81,0,0,0-1.619,0V28.55a.81.81,0,0,0,.774.809c.106,0,10.626.5,15.825,3.456a.809.809,0,0,0,.8,0,25.937,25.937,0,0,1,7.632-2.467l-.478,1.26a.809.809,0,0,0,.756,1.1h4.1a.81.81,0,0,0,.757-1.1L39.8,29.683c2.2-.252,3.77-.323,3.788-.324a.81.81,0,0,0,.774-.809V25.514a.81.81,0,1,0-1.619,0v2.272c-.756.051-2.011.152-3.537.336l-.391-1.03a2.859,2.859,0,0,0-.282-5.386V14.348a25.645,25.645,0,0,1,4.21,2.418v4.953a.81.81,0,1,0,1.619,0V17.842l9.882-4.42a.809.809,0,0,0,0-1.478Zm-17.4,19.142.877-2.308.877,2.308Zm2.118-6.638a1.241,1.241,0,1,1-1.241-1.241A1.242,1.242,0,0,1,38.963,24.449Zm5.351-8.36a.809.809,0,0,0-.282-.386,27.348,27.348,0,0,0-5.5-3.126V6.693l13.4,5.991Zm0,0" transform="translate(0 -0.002)" fill="#505050"/>
</svg>
