<svg xmlns="http://www.w3.org/2000/svg" width="17.833" height="17.834" viewBox="0 0 17.833 17.834">
  <g id="logodetrimis" transform="translate(0 0)">
    <path id="Path_252" data-name="Path 252" d="M210.413,208.707A1.707,1.707,0,1,1,208.707,207,1.707,1.707,0,0,1,210.413,208.707Zm0,0" transform="translate(-199.79 -199.79)" fill="#959595"/>
    <path id="Path_253" data-name="Path 253" d="M143.674,136.667a1.7,1.7,0,0,0-.972-.972,2.833,2.833,0,0,0-.951-.176c-.54-.025-.7-.03-2.069-.03s-1.529.005-2.069.03a2.834,2.834,0,0,0-.951.176,1.7,1.7,0,0,0-.972.972,2.833,2.833,0,0,0-.176.951c-.025.54-.03.7-.03,2.069s.005,1.529.03,2.069a2.832,2.832,0,0,0,.176.951,1.7,1.7,0,0,0,.972.972,2.829,2.829,0,0,0,.951.176c.54.025.7.03,2.069.03s1.529-.005,2.069-.03a2.829,2.829,0,0,0,.951-.176,1.7,1.7,0,0,0,.972-.972,2.836,2.836,0,0,0,.176-.951c.025-.54.03-.7.03-2.069s-.005-1.529-.03-2.069A2.829,2.829,0,0,0,143.674,136.667Zm-3.991,5.649a2.629,2.629,0,1,1,2.629-2.629A2.629,2.629,0,0,1,139.682,142.316Zm2.733-4.748a.614.614,0,1,1,.614-.614A.614.614,0,0,1,142.416,137.568Zm0,0" transform="translate(-130.766 -130.769)" fill="#959595"/>
    <path id="Path_254" data-name="Path 254" d="M8.917,0a8.917,8.917,0,1,0,8.917,8.917A8.918,8.918,0,0,0,8.917,0Zm5.089,11.028a3.757,3.757,0,0,1-.238,1.243,2.618,2.618,0,0,1-1.5,1.5,3.759,3.759,0,0,1-1.243.238c-.546.025-.72.031-2.111.031s-1.565-.006-2.111-.031a3.759,3.759,0,0,1-1.243-.238,2.618,2.618,0,0,1-1.5-1.5,3.756,3.756,0,0,1-.238-1.243C3.8,10.482,3.8,10.308,3.8,8.917s.006-1.565.031-2.111a3.757,3.757,0,0,1,.238-1.243,2.62,2.62,0,0,1,1.5-1.5,3.76,3.76,0,0,1,1.243-.238c.546-.025.72-.031,2.111-.031s1.565.006,2.111.031a3.761,3.761,0,0,1,1.243.238,2.619,2.619,0,0,1,1.5,1.5,3.756,3.756,0,0,1,.238,1.243c.025.546.031.72.031,2.111S14.031,10.482,14.006,11.028Zm0,0" fill="#959595"/>
  </g>
</svg>
