<svg id="logodetrimis" xmlns="http://www.w3.org/2000/svg" width="34.379" height="34.379" viewBox="0 0 34.379 34.379">
  <path id="Path_252" data-name="Path 252" d="M213.58,210.29a3.29,3.29,0,1,1-3.29-3.29A3.29,3.29,0,0,1,213.58,210.29Zm0,0" transform="translate(-193.101 -193.101)"/>
  <path id="Path_253" data-name="Path 253" d="M151.272,137.759a3.269,3.269,0,0,0-1.873-1.873,5.461,5.461,0,0,0-1.833-.34c-1.041-.047-1.353-.058-3.989-.058s-2.948.01-3.989.057a5.465,5.465,0,0,0-1.833.34,3.27,3.27,0,0,0-1.874,1.873,5.463,5.463,0,0,0-.34,1.833c-.047,1.041-.058,1.353-.058,3.989s.01,2.948.058,3.989a5.461,5.461,0,0,0,.34,1.833,3.269,3.269,0,0,0,1.873,1.873,5.454,5.454,0,0,0,1.833.34c1.041.047,1.353.057,3.988.057s2.948-.01,3.989-.057a5.454,5.454,0,0,0,1.833-.34,3.269,3.269,0,0,0,1.873-1.873,5.466,5.466,0,0,0,.34-1.833c.047-1.041.057-1.353.057-3.989s-.01-2.948-.057-3.989A5.455,5.455,0,0,0,151.272,137.759Zm-7.695,10.89a5.069,5.069,0,1,1,5.069-5.069A5.069,5.069,0,0,1,143.577,148.649Zm5.269-9.153a1.185,1.185,0,1,1,1.185-1.185A1.185,1.185,0,0,1,148.846,139.5Zm0,0" transform="translate(-126.387 -126.391)"/>
  <path id="Path_254" data-name="Path 254" d="M17.19,0a17.19,17.19,0,1,0,17.19,17.19A17.192,17.192,0,0,0,17.19,0ZM27,21.259a7.242,7.242,0,0,1-.459,2.4,5.047,5.047,0,0,1-2.887,2.887,7.247,7.247,0,0,1-2.4.459c-1.053.048-1.389.06-4.069.06s-3.017-.012-4.07-.06a7.247,7.247,0,0,1-2.4-.459,5.047,5.047,0,0,1-2.887-2.887,7.24,7.24,0,0,1-.459-2.4c-.049-1.053-.06-1.389-.06-4.07s.011-3.017.06-4.069a7.243,7.243,0,0,1,.458-2.4,5.05,5.05,0,0,1,2.887-2.887,7.249,7.249,0,0,1,2.4-.459c1.053-.048,1.389-.06,4.069-.06s3.017.012,4.069.06a7.25,7.25,0,0,1,2.4.458,5.048,5.048,0,0,1,2.887,2.887A7.241,7.241,0,0,1,27,13.12c.048,1.053.059,1.389.059,4.069S27.049,20.207,27,21.259Zm0,0"/>
</svg>
