<svg xmlns="http://www.w3.org/2000/svg" width="33.46" height="33.46" viewBox="0 0 33.46 33.46">
  <g id="Group_77" data-name="Group 77" transform="translate(-1190 -3793)">
    <circle id="Ellipse_17" data-name="Ellipse 17" cx="16.73" cy="16.73" r="16.73" transform="translate(1190 3793)"/>
    <path id="pinterest" d="M7.086,15.047C6.5,18.179,5.8,21.182,3.7,22.75c-.647-4.733.952-8.289,1.695-12.063-1.266-2.194.153-6.612,2.823-5.524C11.5,6.5,5.368,13.322,9.484,14.175c4.3.889,6.053-7.678,3.388-10.465C9.021-.313,1.663,3.619,2.568,9.378c.221,1.409,1.633,1.836.564,3.78-2.464-.564-3.2-2.565-3.1-5.234A8.421,8.421,0,0,1,7.508.077c4.641-.535,9,1.754,9.6,6.25C17.784,11.4,15.012,16.9,10.05,16.5c-1.345-.107-1.911-.793-2.964-1.453Z" transform="translate(1198.98 3799)" fill="#fff"/>
  </g>
</svg>
