<svg xmlns="http://www.w3.org/2000/svg" width="17.358" height="17.358" viewBox="0 0 17.358 17.358">
  <path id="twitter" d="M8.679,0a8.679,8.679,0,1,0,8.679,8.679A8.68,8.68,0,0,0,8.679,0Zm3.963,6.767q.006.128.006.257A5.63,5.63,0,0,1,6.98,12.693h0A5.639,5.639,0,0,1,3.926,11.8a4.052,4.052,0,0,0,.475.028,4,4,0,0,0,2.474-.853A1.994,1.994,0,0,1,5.014,9.589a1.985,1.985,0,0,0,.9-.034A1.993,1.993,0,0,1,4.316,7.6c0-.009,0-.017,0-.025a1.978,1.978,0,0,0,.9.249A1.994,1.994,0,0,1,4.6,5.166,5.656,5.656,0,0,0,8.708,7.248,1.993,1.993,0,0,1,12.1,5.431a4,4,0,0,0,1.265-.484,2,2,0,0,1-.876,1.1,3.973,3.973,0,0,0,1.144-.314,4.048,4.048,0,0,1-.994,1.032Zm0,0" transform="translate(0)" fill="#959595"/>
</svg>
