<svg xmlns="http://www.w3.org/2000/svg" width="17.418" height="17.418" viewBox="0 0 17.418 17.418">
  <g id="youtube-logotype" transform="translate(0 0)">
    <g id="Group_38" data-name="Group 38">
      <path id="Path_225" data-name="Path 225" d="M25.676,49.659h.69V53.4h.653V49.659h.7v-.612H25.676Z" transform="translate(-21.101 -40.307)" fill="#959595"/>
      <path id="Path_226" data-name="Path 226" d="M51.167,50.115a.8.8,0,0,0-.607.351V49.046h-.587V53.4h.587v-.314a.8.8,0,0,0,.607.359.465.465,0,0,0,.469-.364,2.58,2.58,0,0,0,.06-.653v-1.29a2.49,2.49,0,0,0-.06-.651A.465.465,0,0,0,51.167,50.115Zm-.059,2.354c0,.293-.086.437-.256.437a.419.419,0,0,1-.293-.145V50.787a.422.422,0,0,1,.293-.143c.169,0,.256.15.256.442Z" transform="translate(-41.068 -40.306)" fill="#959595"/>
      <path id="Path_227" data-name="Path 227" d="M38.744,57.745c-.13.184-.253.275-.371.275-.078,0-.123-.046-.137-.137a1.814,1.814,0,0,1-.005-.228V55.268h-.587V57.83a1.652,1.652,0,0,0,.052.482.361.361,0,0,0,.378.241.941.941,0,0,0,.671-.4v.354h.588V55.268h-.588Z" transform="translate(-30.935 -45.42)" fill="#959595"/>
      <path id="Path_228" data-name="Path 228" d="M45.346,27.922c.191,0,.283-.152.283-.455V26.09c0-.3-.092-.454-.283-.454s-.283.151-.283.454v1.378C45.063,27.771,45.155,27.922,45.346,27.922Z" transform="translate(-37.033 -21.068)" fill="#959595"/>
      <path id="Path_229" data-name="Path 229" d="M8.709,0a8.709,8.709,0,1,0,8.709,8.709A8.709,8.709,0,0,0,8.709,0Zm.969,4.073h.592V6.485a1.4,1.4,0,0,0,.007.231c.013.092.06.139.139.139.119,0,.243-.092.375-.278v-2.5h.593V7.348h-.593V6.991a.953.953,0,0,1-.678.4A.364.364,0,0,1,9.73,7.15a1.655,1.655,0,0,1-.053-.487V4.073ZM7.436,5.141a1.273,1.273,0,0,1,.186-.772.88.88,0,0,1,1.383,0,1.286,1.286,0,0,1,.184.772V6.288a1.282,1.282,0,0,1-.184.77.881.881,0,0,1-1.383,0,1.269,1.269,0,0,1-.186-.77ZM5.849,2.954l.467,1.726.449-1.726h.666L6.639,5.569v1.78H5.981V5.569a10.824,10.824,0,0,0-.4-1.39C5.44,3.77,5.3,3.361,5.157,2.954h.692ZM13.4,13.375a1.228,1.228,0,0,1-1.05.955,32.638,32.638,0,0,1-3.639.135A32.637,32.637,0,0,1,5.07,14.33a1.227,1.227,0,0,1-1.05-.955,10.4,10.4,0,0,1-.169-2.3,10.408,10.408,0,0,1,.171-2.3,1.227,1.227,0,0,1,1.05-.955,32.641,32.641,0,0,1,3.639-.135,32.638,32.638,0,0,1,3.638.135,1.228,1.228,0,0,1,1.051.955,10.428,10.428,0,0,1,.168,2.3A10.4,10.4,0,0,1,13.4,13.375Z" fill="#959595"/>
      <path id="Path_230" data-name="Path 230" d="M63.09,55.046a.834.834,0,0,0-.7.332,1.264,1.264,0,0,0-.181.764v1.135a1.251,1.251,0,0,0,.189.762.84.84,0,0,0,.711.332.812.812,0,0,0,.71-.351.836.836,0,0,0,.137-.352c.006-.059.012-.189.012-.378V57.2h-.6a3.846,3.846,0,0,1-.013.4.252.252,0,0,1-.262.235c-.2,0-.3-.15-.3-.449v-.575h1.175v-.671a1.274,1.274,0,0,0-.182-.764A.815.815,0,0,0,63.09,55.046Zm.287,1.278H62.79v-.3q0-.45.295-.45c.194,0,.293.15.293.45Z" transform="translate(-51.121 -45.237)" fill="#959595"/>
    </g>
  </g>
</svg>
