<svg id="youtube-logotype" xmlns="http://www.w3.org/2000/svg" width="33.578" height="33.578" viewBox="0 0 33.578 33.578">
  <g id="Group_38" data-name="Group 38">
    <path id="Path_225" data-name="Path 225" d="M25.676,50.227h1.331v7.2h1.259v-7.2h1.356v-1.18H25.676Z" transform="translate(-16.856 -32.199)"/>
    <path id="Path_226" data-name="Path 226" d="M52.275,51.107a1.532,1.532,0,0,0-1.17.677V49.046H49.973v8.385H51.1v-.605a1.543,1.543,0,0,0,1.17.691.9.9,0,0,0,.9-.7,4.974,4.974,0,0,0,.115-1.259V53.068a4.8,4.8,0,0,0-.115-1.256A.9.9,0,0,0,52.275,51.107Zm-.113,4.537c0,.565-.166.843-.493.843a.807.807,0,0,1-.564-.279V52.4a.813.813,0,0,1,.564-.276c.327,0,.493.289.493.853Z" transform="translate(-32.807 -32.198)"/>
    <path id="Path_227" data-name="Path 227" d="M39.766,60.042c-.251.355-.488.53-.716.53-.151,0-.237-.089-.265-.265a3.5,3.5,0,0,1-.01-.44v-4.6H37.643v4.939a3.185,3.185,0,0,0,.1.929.7.7,0,0,0,.729.465,1.814,1.814,0,0,0,1.294-.767v.682H40.9V55.268H39.766Z" transform="translate(-24.712 -36.283)"/>
    <path id="Path_228" data-name="Path 228" d="M45.609,30.043c.369,0,.545-.292.545-.876V26.511c0-.584-.177-.875-.545-.875s-.546.291-.546.875v2.656C45.063,29.751,45.24,30.043,45.609,30.043Z" transform="translate(-29.584 -16.83)"/>
    <path id="Path_229" data-name="Path 229" d="M16.789,0A16.789,16.789,0,1,0,33.578,16.789,16.789,16.789,0,0,0,16.789,0Zm1.867,7.853H19.8V12.5a2.694,2.694,0,0,0,.014.445c.025.177.115.268.268.268.229,0,.469-.177.723-.536V7.853h1.144v6.313H20.8v-.688a1.837,1.837,0,0,1-1.307.775.7.7,0,0,1-.737-.469,3.19,3.19,0,0,1-.1-.939V7.853ZM14.336,9.911a2.453,2.453,0,0,1,.358-1.487,1.7,1.7,0,0,1,2.667,0,2.479,2.479,0,0,1,.354,1.487v2.211a2.471,2.471,0,0,1-.354,1.485,1.7,1.7,0,0,1-2.667,0,2.445,2.445,0,0,1-.358-1.485ZM11.276,5.694l.9,3.327.865-3.327h1.283L12.8,10.735v3.431H11.531V10.735a20.866,20.866,0,0,0-.776-2.68c-.267-.786-.546-1.575-.813-2.361h1.335Zm14.551,20.09A2.367,2.367,0,0,1,23.8,27.624a62.92,62.92,0,0,1-7.014.259,62.918,62.918,0,0,1-7.014-.259A2.365,2.365,0,0,1,7.75,25.784a20.039,20.039,0,0,1-.327-4.428,20.063,20.063,0,0,1,.33-4.428,2.365,2.365,0,0,1,2.024-1.841,62.927,62.927,0,0,1,7.015-.259,62.92,62.92,0,0,1,7.014.259,2.367,2.367,0,0,1,2.025,1.841,20.1,20.1,0,0,1,.324,4.428A20.04,20.04,0,0,1,25.827,25.784Z"/>
    <path id="Path_230" data-name="Path 230" d="M63.911,55.046a1.608,1.608,0,0,0-1.356.64,2.436,2.436,0,0,0-.35,1.472v2.188a2.412,2.412,0,0,0,.364,1.469,1.62,1.62,0,0,0,1.37.64,1.565,1.565,0,0,0,1.369-.677,1.612,1.612,0,0,0,.264-.678c.011-.113.024-.364.024-.73v-.165H64.441a7.415,7.415,0,0,1-.025.767.487.487,0,0,1-.506.454c-.389,0-.579-.289-.579-.866V58.452H65.6V57.158a2.455,2.455,0,0,0-.35-1.472A1.572,1.572,0,0,0,63.911,55.046Zm.554,2.464H63.332v-.578q0-.867.568-.867c.374,0,.564.289.564.867Z" transform="translate(-40.837 -36.137)"/>
  </g>
</svg>
